<svg width="79" height="72" viewBox="0 0 79 72" fill="none" xmlns="http://www.w3.org/2000/svg">
<circle cx="39.2671" cy="35.8101" r="35.3101" fill="#E76458" fill-opacity="0.08"/>
<circle cx="39.2673" cy="35.8103" r="24.5261" fill="#E76458" fill-opacity="0.08"/>
<path d="M71.1807 63.2163L7.78827 63.2163" stroke="#E76458" stroke-width="1.67581" stroke-linecap="round"/>
<path d="M77.8877 63.2163L73.6557 63.2163" stroke="#E76458" stroke-width="1.67581" stroke-linecap="round"/>
<path d="M5.32227 63.2163L3.52269 63.2163" stroke="#E76458" stroke-width="1.67581" stroke-linecap="round"/>
<path d="M1.27734 63.2163L1.11247 63.2163" stroke="#E76458" stroke-width="1.67581" stroke-linecap="round"/>
<path d="M20.6318 26.9073L24.4471 25.14V16.144C24.4471 13.8579 26.3004 12.0046 28.5865 12.0046H52.1439C54.43 12.0046 56.2832 13.8579 56.2832 16.144V25.14L58.4617 25.5854L66.3982 47.7584V62.6015H13.9171V47.7584L20.6318 26.9073Z" fill="white"/>
<path d="M66.1967 7.42284L65.8272 5.45145L67.7986 5.08203L68.168 7.05342L70.1394 6.684L70.5089 8.65539L68.5375 9.02481L68.9069 10.9962L66.9355 11.3656L66.5661 9.39423L64.5947 9.76365L64.2253 7.79226L66.1967 7.42284Z" fill="#E76458"/>
<path fill-rule="evenodd" clip-rule="evenodd" d="M17.2822 21.1775C15.2034 20.4528 14.6843 17.6827 16.3596 16.2545C16.8377 15.847 17.0717 15.7381 17.7364 15.6135C18.4012 15.4889 18.6587 15.5057 19.2519 15.7125C20.759 16.2379 21.5361 17.891 20.9995 19.4299C20.4741 20.937 18.8211 21.7141 17.2822 21.1775ZM18.469 19.4275C19.3438 19.2636 19.5804 18.0738 18.8331 17.5959C18.067 17.1061 17.1167 17.7512 17.2846 18.647C17.3911 19.2157 17.88 19.5379 18.469 19.4275Z" fill="#E76458"/>
<path d="M11.2429 29.9644L10.8735 27.993L12.8448 27.6236L13.2143 29.595L15.1857 29.2255L15.5551 31.1969L13.5837 31.5663L13.9531 33.5377L11.9817 33.9072L11.6123 31.9358L9.6409 32.3052L9.27148 30.3338L11.2429 29.9644Z" fill="#E76458"/>
<path fill-rule="evenodd" clip-rule="evenodd" d="M67.6734 34.1815C65.5947 33.4567 65.0756 30.6866 66.7509 29.2584C67.229 28.8509 67.463 28.742 68.1277 28.6174C68.7924 28.4928 69.05 28.5096 69.6432 28.7164C71.1503 29.2418 71.9274 30.8949 71.3908 32.4338C70.8654 33.9409 69.2124 34.718 67.6734 34.1815ZM68.8603 32.4314C69.7351 32.2675 69.9717 31.0777 69.2244 30.5998C68.4583 30.11 67.508 30.7552 67.6758 31.6509C67.7824 32.2196 68.2713 32.5418 68.8603 32.4314Z" fill="#E76458"/>
<path d="M17.7907 55.7768C17.362 55.7768 17.0145 56.1242 17.0145 56.5529C17.0145 56.9815 17.362 57.329 17.7907 57.329H21.383C21.8117 57.329 22.1592 56.9815 22.1592 56.5529C22.1592 56.1242 21.8117 55.7768 21.383 55.7768H17.7907Z" fill="#E76458"/>
<path d="M17.0145 59.143C17.0145 58.7144 17.362 58.3669 17.7907 58.3669H21.383C21.8117 58.3669 22.1592 58.7144 22.1592 59.143C22.1592 59.5717 21.8117 59.9192 21.383 59.9192H17.7907C17.362 59.9192 17.0145 59.5717 17.0145 59.143Z" fill="#E76458"/>
<path d="M34.3322 57.6731C34.3322 57.2445 33.9847 56.897 33.5561 56.897C33.1275 56.897 32.78 57.2445 32.78 57.6731V58.6104C32.78 59.6106 33.5908 60.4214 34.5909 60.4214H44.214C45.2142 60.4214 46.025 59.6106 46.025 58.6104V57.6731C46.025 57.2445 45.6775 56.897 45.2488 56.897C44.8202 56.897 44.4727 57.2445 44.4727 57.6731V58.6104C44.4727 58.7533 44.3569 58.8692 44.214 58.8692H34.5909C34.4481 58.8692 34.3322 58.7533 34.3322 58.6104V57.6731Z" fill="#E76458"/>
<path fill-rule="evenodd" clip-rule="evenodd" d="M22.7489 24.6248C22.0715 24.6248 21.5042 24.7666 21.0573 25.0865C20.6064 25.4092 20.3729 25.8455 20.2361 26.2453L20.2347 26.2494L13.0946 47.92V61.9788C13.0429 62.4159 13.2279 62.8921 13.6625 63.2295C14.1042 63.5724 14.7526 63.7407 15.6041 63.7407H65.3008L65.346 63.7354C66.1181 63.6445 67.0839 62.8934 67.0839 61.293V47.9185L59.718 25.8387L59.6954 25.7924C59.4407 25.2714 58.7749 24.6248 57.5887 24.6248H56.7051V24.5846C56.7051 24.2988 56.4734 24.0671 56.1877 24.0671C55.9019 24.0671 55.6702 24.2988 55.6702 24.5846V25.5773C55.6702 25.8631 55.9019 26.0947 56.1877 26.0947C56.2459 26.0947 56.3019 26.0851 56.3542 26.0674V26.1771H57.5887C57.8784 26.1771 58.048 26.2511 58.1427 26.3129C58.2178 26.362 58.2622 26.4143 58.2846 26.4471L65.2847 47.4303H61.2396V44.2954C61.2396 43.1446 60.7388 42.1109 59.9432 41.4002C59.9618 41.3336 59.9717 41.2635 59.9717 41.1909V36.3541C59.9717 34.4198 58.5565 32.816 56.7051 32.5217V32.0303C56.7051 31.7445 56.4734 31.5128 56.1877 31.5128C55.9019 31.5128 55.6702 31.7445 55.6702 32.0303V32.4734H24.9666V32.0303C24.9666 31.7445 24.7349 31.5128 24.4492 31.5128C24.1634 31.5128 23.9318 31.7445 23.9318 32.0303V32.478C21.8774 32.5777 20.2423 34.275 20.2423 36.3541V41.1909C20.2423 41.2634 20.2523 41.3336 20.2709 41.4001C19.4752 42.1108 18.9743 43.1446 18.9743 44.2954V47.4303H14.8903L21.7061 26.7439C21.7798 26.5299 21.8622 26.4193 21.9607 26.3487C22.0638 26.275 22.2803 26.1771 22.7489 26.1771H24.3264V26.0801C24.3658 26.0897 24.4069 26.0947 24.4492 26.0947C24.7349 26.0947 24.9666 25.8631 24.9666 25.5773V24.5846C24.9666 24.2988 24.7349 24.0671 24.4492 24.0671C24.1634 24.0671 23.9318 24.2988 23.9318 24.5846V24.6248H22.7489ZM21.7946 40.5613C22.1316 40.4658 22.4873 40.4147 22.855 40.4147H57.359C57.7266 40.4147 58.0824 40.4658 58.4195 40.5614V36.3541C58.4195 35.0681 57.377 34.0257 56.0911 34.0257H24.123C22.8371 34.0257 21.7946 35.0681 21.7946 36.3541V40.5613ZM59.6873 44.2954V47.4303H54.6902C54.0554 47.4303 53.4669 47.7627 53.1392 48.3065L50.4353 52.7927C50.3885 52.8704 50.3044 52.9179 50.2137 52.9179H29.6392C29.5505 52.9179 29.468 52.8725 29.4206 52.7975L26.5564 48.2727C26.2244 47.7482 25.647 47.4303 25.0262 47.4303H20.5266V44.2954C20.5266 43.0094 21.569 41.967 22.855 41.967H57.359C58.6449 41.967 59.6873 43.0094 59.6873 44.2954ZM65.5317 48.9826H54.6902C54.5996 48.9826 54.5155 49.0301 54.4687 49.1077L51.7648 53.594C51.4371 54.1377 50.8486 54.4701 50.2137 54.4701H29.6392C29.0184 54.4701 28.441 54.1522 28.109 53.6278L25.2448 49.1029C25.1974 49.028 25.1149 48.9826 25.0262 48.9826H14.6469V62.0249C14.7434 62.0817 15.0094 62.1884 15.6041 62.1884H65.1754C65.2012 62.1776 65.2596 62.1481 65.3218 62.075C65.403 61.9794 65.5317 61.7591 65.5317 61.293V48.9826Z" fill="#E76458"/>
<path d="M24.4492 31.0585C24.7349 31.0585 24.9666 30.8269 24.9666 30.5411V29.5484C24.9666 29.2626 24.7349 29.0309 24.4492 29.0309C24.1634 29.0309 23.9318 29.2626 23.9318 29.5484V30.5411C23.9318 30.8269 24.1634 31.0585 24.4492 31.0585Z" fill="#E76458"/>
<path d="M56.1877 31.0585C56.4734 31.0585 56.7051 30.8269 56.7051 30.5411V29.5484C56.7051 29.2626 56.4734 29.0309 56.1877 29.0309C55.9019 29.0309 55.6702 29.2626 55.6702 29.5484V30.5411C55.6702 30.8269 55.9019 31.0585 56.1877 31.0585Z" fill="#E76458"/>
<path d="M24.4492 28.5766C24.7349 28.5766 24.9666 28.345 24.9666 28.0592V27.0665C24.9666 26.7807 24.7349 26.549 24.4492 26.549C24.1634 26.549 23.9318 26.7807 23.9318 27.0665V28.0592C23.9318 28.345 24.1634 28.5766 24.4492 28.5766Z" fill="#E76458"/>
<path d="M56.1877 28.5766C56.4734 28.5766 56.7051 28.345 56.7051 28.0592V27.0665C56.7051 26.7807 56.4734 26.549 56.1877 26.549C55.9019 26.549 55.6702 26.7807 55.6702 27.0665V28.0592C55.6702 28.345 55.9019 28.5766 56.1877 28.5766Z" fill="#E76458"/>
<path d="M24.4492 23.6128C24.7349 23.6128 24.9666 23.3812 24.9666 23.0954V22.1027C24.9666 21.8169 24.7349 21.5852 24.4492 21.5852C24.1634 21.5852 23.9318 21.8169 23.9318 22.1027V23.0954C23.9318 23.3812 24.1634 23.6128 24.4492 23.6128Z" fill="#E76458"/>
<path d="M56.1877 23.6128C56.4734 23.6128 56.7051 23.3812 56.7051 23.0954V22.1027C56.7051 21.8169 56.4734 21.5852 56.1877 21.5852C55.9019 21.5852 55.6702 21.8169 55.6702 22.1027V23.0954C55.6702 23.3812 55.9019 23.6128 56.1877 23.6128Z" fill="#E76458"/>
<path d="M24.4492 21.1309C24.7349 21.1309 24.9666 20.8993 24.9666 20.6135V19.6208C24.9666 19.335 24.7349 19.1033 24.4492 19.1033C24.1634 19.1033 23.9318 19.335 23.9318 19.6208V20.6135C23.9318 20.8993 24.1634 21.1309 24.4492 21.1309Z" fill="#E76458"/>
<path d="M56.1877 21.1309C56.4734 21.1309 56.7051 20.8993 56.7051 20.6135V19.6208C56.7051 19.335 56.4734 19.1033 56.1877 19.1033C55.9019 19.1033 55.6702 19.335 55.6702 19.6208V20.6135C55.6702 20.8993 55.9019 21.1309 56.1877 21.1309Z" fill="#E76458"/>
<path d="M24.4492 18.649C24.7349 18.649 24.9666 18.4174 24.9666 18.1316V17.1389C24.9666 16.8531 24.7349 16.6214 24.4492 16.6214C24.1634 16.6214 23.9318 16.8531 23.9318 17.1389V18.1316C23.9318 18.4174 24.1634 18.649 24.4492 18.649Z" fill="#E76458"/>
<path d="M56.1877 18.649C56.4734 18.649 56.7051 18.4174 56.7051 18.1316V17.1389C56.7051 16.8531 56.4734 16.6214 56.1877 16.6214C55.9019 16.6214 55.6702 16.8531 55.6702 17.1389V18.1316C55.6702 18.4174 55.9019 18.649 56.1877 18.649Z" fill="#E76458"/>
<path d="M24.4492 16.1671C24.7349 16.1671 24.9666 15.9355 24.9666 15.6497V15.1533C24.9666 15.0151 24.9774 14.8797 24.9981 14.7478C25.0425 14.4656 24.8496 14.2007 24.5673 14.1564C24.285 14.112 24.0202 14.3049 23.9758 14.5872C23.9468 14.772 23.9318 14.9611 23.9318 15.1533V15.6497C23.9318 15.9355 24.1634 16.1671 24.4492 16.1671Z" fill="#E76458"/>
<path d="M56.1877 16.1671C56.4734 16.1671 56.7051 15.9355 56.7051 15.6497V15.1533C56.7051 14.9611 56.69 14.772 56.661 14.5872C56.6166 14.3049 56.3518 14.112 56.0695 14.1564C55.7872 14.2007 55.5943 14.4655 55.6387 14.7478C55.6594 14.8797 55.6702 15.0151 55.6702 15.1533V15.6497C55.6702 15.9355 55.9019 16.1671 56.1877 16.1671Z" fill="#E76458"/>
<path d="M24.7374 13.7468C24.9685 13.9149 25.2921 13.864 25.4602 13.6329C25.6201 13.4133 25.8137 13.2197 26.0333 13.0599C26.2643 12.8917 26.3153 12.5681 26.1472 12.337C25.979 12.106 25.6554 12.055 25.4243 12.2232C25.1174 12.4466 24.8469 12.717 24.6235 13.024C24.4554 13.255 24.5064 13.5786 24.7374 13.7468Z" fill="#E76458"/>
<path d="M55.8994 13.7468C56.1305 13.5786 56.1814 13.255 56.0133 13.024C55.7899 12.717 55.5195 12.4466 55.2125 12.2232C54.9814 12.055 54.6578 12.106 54.4897 12.337C54.3215 12.5681 54.3725 12.8917 54.6036 13.0599C54.8232 13.2197 55.0167 13.4133 55.1766 13.6329C55.3447 13.864 55.6684 13.9149 55.8994 13.7468Z" fill="#E76458"/>
<path d="M26.5567 12.1669C26.6011 12.4492 26.8659 12.6421 27.1482 12.5977C27.28 12.577 27.4154 12.5662 27.5537 12.5662H28.0643C28.3501 12.5662 28.5817 12.3346 28.5817 12.0488C28.5817 11.763 28.3501 11.5314 28.0643 11.5314H27.5537C27.3614 11.5314 27.1723 11.5464 26.9876 11.5754C26.7053 11.6198 26.5124 11.8846 26.5567 12.1669Z" fill="#E76458"/>
<path d="M54.0801 12.1669C54.1245 11.8846 53.9316 11.6198 53.6493 11.5754C53.4645 11.5464 53.2754 11.5314 53.0831 11.5314H52.5725C52.2868 11.5314 52.0551 11.763 52.0551 12.0488C52.0551 12.3346 52.2868 12.5662 52.5725 12.5662H53.0831C53.2214 12.5662 53.3568 12.577 53.4886 12.5977C53.7709 12.6421 54.0357 12.4492 54.0801 12.1669Z" fill="#E76458"/>
<path d="M29.0786 12.0488C29.0786 12.3346 29.3103 12.5662 29.5961 12.5662H30.6172C30.903 12.5662 31.1347 12.3346 31.1347 12.0488C31.1347 11.763 30.903 11.5314 30.6172 11.5314H29.5961C29.3103 11.5314 29.0786 11.763 29.0786 12.0488Z" fill="#E76458"/>
<path d="M31.6316 12.0488C31.6316 12.3346 31.8632 12.5662 32.149 12.5662H33.1702C33.4559 12.5662 33.6876 12.3346 33.6876 12.0488C33.6876 11.763 33.4559 11.5314 33.1702 11.5314H32.149C31.8632 11.5314 31.6316 11.763 31.6316 12.0488Z" fill="#E76458"/>
<path d="M34.1845 12.0488C34.1845 12.3346 34.4162 12.5662 34.7019 12.5662H35.7231C36.0089 12.5662 36.2405 12.3346 36.2405 12.0488C36.2405 11.763 36.0089 11.5314 35.7231 11.5314H34.7019C34.4162 11.5314 34.1845 11.763 34.1845 12.0488Z" fill="#E76458"/>
<path d="M36.7375 12.0488C36.7375 12.3346 36.9691 12.5662 37.2549 12.5662H38.2761C38.5618 12.5662 38.7935 12.3346 38.7935 12.0488C38.7935 11.763 38.5618 11.5314 38.2761 11.5314H37.2549C36.9691 11.5314 36.7375 11.763 36.7375 12.0488Z" fill="#E76458"/>
<path d="M39.2904 12.0488C39.2904 12.3346 39.5221 12.5662 39.8078 12.5662H40.829C41.1148 12.5662 41.3464 12.3346 41.3464 12.0488C41.3464 11.763 41.1148 11.5314 40.829 11.5314H39.8078C39.5221 11.5314 39.2904 11.763 39.2904 12.0488Z" fill="#E76458"/>
<path d="M41.8433 12.0488C41.8433 12.3346 42.075 12.5662 42.3608 12.5662H43.3819C43.6677 12.5662 43.8994 12.3346 43.8994 12.0488C43.8994 11.763 43.6677 11.5314 43.3819 11.5314H42.3608C42.075 11.5314 41.8433 11.763 41.8433 12.0488Z" fill="#E76458"/>
<path d="M44.3963 12.0488C44.3963 12.3346 44.6279 12.5662 44.9137 12.5662H45.9349C46.2206 12.5662 46.4523 12.3346 46.4523 12.0488C46.4523 11.763 46.2206 11.5314 45.9349 11.5314H44.9137C44.6279 11.5314 44.3963 11.763 44.3963 12.0488Z" fill="#E76458"/>
<path d="M46.9492 12.0488C46.9492 12.3346 47.1809 12.5662 47.4666 12.5662H48.4878C48.7736 12.5662 49.0052 12.3346 49.0052 12.0488C49.0052 11.763 48.7736 11.5314 48.4878 11.5314H47.4666C47.1809 11.5314 46.9492 11.763 46.9492 12.0488Z" fill="#E76458"/>
<path d="M49.5022 12.0488C49.5022 12.3346 49.7338 12.5662 50.0196 12.5662H51.0408C51.3265 12.5662 51.5582 12.3346 51.5582 12.0488C51.5582 11.763 51.3265 11.5314 51.0408 11.5314H50.0196C49.7338 11.5314 49.5022 11.763 49.5022 12.0488Z" fill="#E76458"/>
<path d="M38.3095 19.348C38.0064 19.0449 37.5149 19.0449 37.2118 19.348C36.9087 19.6511 36.9087 20.1425 37.2118 20.4456L39.3333 22.567L37.2118 24.6884C36.9087 24.9915 36.9087 25.483 37.2118 25.7861C37.5149 26.0892 38.0064 26.0892 38.3095 25.7861L40.4309 23.6646L42.5523 25.7861C42.8554 26.0892 43.3468 26.0892 43.6499 25.7861C43.953 25.483 43.953 24.9915 43.6499 24.6884L41.5285 22.567L43.6499 20.4456C43.953 20.1425 43.953 19.6511 43.6499 19.348C43.3468 19.0449 42.8554 19.0449 42.5523 19.348L40.4309 21.4694L38.3095 19.348Z" fill="#E76458"/>
</svg>
